{"title":"Villons Wife 2009 DVDRip(Eng Sub) GoGo","uid":5639978,"size":1042850035,"categoryP":"video","categoryS":"movies","magnet":"?xt=urn:btih:8757fceed82a20cc099f7a74c82bce912c0178e1&amp;dn=Villons+Wife+2009+DVDRip%28Eng+Sub%29+GoGo&amp;tr=udp%3A%2F%2Ftracker.openbittorrent.com%3A80&amp;tr=udp%3A%2F%2Fopen.demonii.com%3A1337&amp;tr=udp%3A%2F%2Ftracker.coppersurfer.tk%3A6969&amp;tr=udp%3A%2F%2Fexodus.desync.com%3A6969","seeders":1,"leechers":0,"uploader":"fasamoo","files":9,"time":1277061002,"description":"\n\n[IMG]http://img822.imageshack.us/img822/7711/villonswife1.jpg[/IMG]\n\n\nThis enticing period melodrama depicts a long-suffering woman's relationship with her brilliant but self-destructive writer husband in postwar Tokyo. Based on a semi-autobiographical 1947 novel by Osamu Dazai, the story centers less on the womanizing, heavy-drinking, suicidal hero than on the wife who loves him.\n\n\n[IMG]http://img693.imageshack.us/img693/2503/bscap0000aen.jpg[/IMG]\n[IMG]http://img714.imageshack.us/img714/2016/bscap0001z.jpg[/IMG]\n[IMG]http://img710.imageshack.us/img710/4181/bscap0002s.jpg[/IMG]\n[IMG]http://img710.imageshack.us/img710/7190/bscap0003u.jpg[/IMG]\n[IMG]http://img697.imageshack.us/img697/7349/bscap0004zo.jpg[/IMG]\n[IMG]http://img535.imageshack.us/img535/3630/villonswife2009dvdripen.jpg[/IMG]\n\n\n\n\nGeneral\nComplete name                    : Villons Wife 2009 DVDRip(Eng Sub) GoGoVillons Wife 2009 DVDRip(Eng Sub) GoGo.avi\nIMDB Link                        :[url]http://www.imdb.com/title/tt1259609/[/url]\nFormat                           : AVI\nFormat/Info                      : Audio Video Interleave\nFile size                        : 994 MiB\nDuration                         : 1h 54mn\nOverall bit rate                 : 1 219 Kbps\nWriting application              : Lavf51.12.1\n\nVideo\nID                               : 0\nFormat                           : MPEG-4 Visual\nFormat profile                   : Simple@L1\nFormat settings, BVOP            : No\nFormat settings, QPel            : No\nFormat settings, GMC             : No warppoints\nFormat settings, Matrix          : Default (H.263)\nCodec ID                         : DX50\nCodec ID/Hint                    : DivX 5\nDuration                         : 1h 54mn\nBit rate                         : 1 078 Kbps\nWidth                            : 640 pixels\nHeight                           : 352 pixels\nDisplay aspect ratio             : 16:9\nFrame rate                       : 23.976 fps\nColor space                      : YUV\nChroma subsampling               : 4:2:0\nBit depth                        : 8 bits\nScan type                        : Progressive\nBits/(Pixel*Frame)               : 0.200\nStream size                      : 879 MiB (88%)\nWriting library                  : Lavc51.40.4\n\nAudio\nID                               : 1\nFormat                           : MPEG Audio\nFormat version                   : Version 1\nFormat profile                   : Layer 3\nMode                             : Joint stereo\nMode extension                   : MS Stereo\nCodec ID                         : 55\nCodec ID/Hint                    : MP3\nDuration                         : 1h 54mn\nBit rate mode                    : Constant\nBit rate                         : 128 Kbps\nChannel(s)                       : 2 channels\nSampling rate                    : 48.0 KHz\nStream size                      : 104 MiB (11%)\nAlignment                        : Aligned on interleaves\nInterleave, duration             : 24 ms (0.58 video frame)\nInterleave, preload duration     : 24 ms\nWriting library                  : LAME3.97\nLanguage                         : Japanese\nSubtitles                        : English.(.srt)\nGenre                            : Drama\n\n[img]http://imgboot.com/images/fasamoo/pleaseseed.gif[/img]","torrent":{"xt":"urn:btih:8757fceed82a20cc099f7a74c82bce912c0178e1","amp;dn":"Villons+Wife+2009+DVDRip%28Eng+Sub%29+GoGo","amp;tr":["udp%3A%2F%2Ftracker.openbittorrent.com%3A80","udp%3A%2F%2Fopen.demonii.com%3A1337","udp%3A%2F%2Ftracker.coppersurfer.tk%3A6969","udp%3A%2F%2Fexodus.desync.com%3A6969"],"infoHash":"8757fceed82a20cc099f7a74c82bce912c0178e1","infoHashBuffer":{"type":"Buffer","data":[135,87,252,238,216,42,32,204,9,159,122,116,200,43,206,145,44,1,120,225]},"announce":[],"urlList":[]}}